<svg width="76" height="32" viewBox="0 0 76 32" fill="none" xmlns="http://www.w3.org/2000/svg">
<g clip-path="url(#clip0_21301_3753)">
<g clip-path="url(#clip1_21301_3753)">
<path d="M6.84976 26.5051C3.17325 26.5051 0.881104 23.8272 0.881104 20.3551C0.881104 16.8829 3.15055 14.205 6.69089 14.205C9.70926 14.205 11.5702 15.9524 11.9787 18.4715H8.96034C8.75609 17.4502 7.96179 16.6786 6.82706 16.6786C4.96611 16.6786 4.01294 18.1084 4.01294 20.3551C4.01294 22.5564 4.89803 24.0315 6.78167 24.0315C8.02987 24.0315 8.91495 23.3734 9.11921 22.0571H12.0922C11.8879 24.5308 9.9589 26.5051 6.84976 26.5051Z" fill="#27272A"/>
<path d="M18.9532 26.5051C15.3448 26.5051 12.8711 23.8272 12.8711 20.3551C12.8711 16.8829 15.3448 14.205 18.9532 14.205C22.5616 14.205 25.0353 16.8829 25.0353 20.3551C25.0353 23.8272 22.5616 26.5051 18.9532 26.5051ZM18.9532 24.145C20.8368 24.145 21.9035 22.6245 21.9035 20.3551C21.9035 18.0857 20.8368 16.5425 18.9532 16.5425C17.0469 16.5425 16.0029 18.0857 16.0029 20.3551C16.0029 22.6245 17.0469 24.145 18.9532 24.145Z" fill="#27272A"/>
<path d="M30.8274 26.5051C27.8998 26.5051 25.9027 24.1223 25.9027 20.3551C25.9027 16.724 27.9679 14.205 30.8728 14.205C32.5068 14.205 33.528 14.9539 34.1635 15.9297H34.2315V9.93853H37.318V26.1647H34.345V24.6442H34.2996C33.6188 25.7562 32.4614 26.5051 30.8274 26.5051ZM31.5082 23.918C33.3465 23.918 34.2996 22.5564 34.2996 20.4231C34.2996 18.1991 33.5734 16.7013 31.599 16.7013C29.8969 16.7013 29.0345 18.1991 29.0345 20.3551C29.0345 22.6018 29.9196 23.918 31.5082 23.918Z" fill="#27272A"/>
<path d="M44.7937 26.5051C40.9356 26.5051 38.757 23.8045 38.757 20.3324C38.757 16.8829 41.0945 14.205 44.4987 14.205C48.2433 14.205 50.2404 17.0644 50.2404 21.2174H41.798C42.025 23.0103 43.0235 24.1223 44.771 24.1223C45.9738 24.1223 46.6774 23.5776 47.0178 22.6925H50.0588C49.6276 24.7577 47.7894 26.5051 44.7937 26.5051ZM44.5441 16.5879C42.9101 16.5879 42.1158 17.5637 41.8434 19.0842H47.0178C46.927 17.6091 45.9511 16.5879 44.5441 16.5879Z" fill="#27272A"/>
<path d="M51.4873 30C50.92 30 50.2164 29.9546 49.7399 29.8638V27.6625C50.9881 27.6398 51.6689 27.5264 51.6689 26.4597V14.5227H54.7553V26.6186C54.7553 27.9802 54.483 28.6611 53.9837 29.1603C53.3937 29.7731 52.4859 30 51.4873 30ZM51.6689 12.7072V9.93853H54.7553V12.7072H51.6689Z" fill="#27272A"/>
<path d="M62.2135 26.5051C58.3554 26.5051 56.1768 23.8045 56.1768 20.3324C56.1768 16.8829 58.5143 14.205 61.9185 14.205C65.6631 14.205 67.6602 17.0644 67.6602 21.2174H59.2178C59.4448 23.0103 60.4433 24.1223 62.1908 24.1223C63.3936 24.1223 64.0971 23.5776 64.4376 22.6925H67.4786C67.0474 24.7577 65.2092 26.5051 62.2135 26.5051ZM61.9639 16.5879C60.3299 16.5879 59.5356 17.5637 59.2632 19.0842H64.4376C64.3468 17.6091 63.3709 16.5879 61.9639 16.5879Z" fill="#27272A"/>
<path d="M68.1862 16.5652V14.5227H69.7975V10.8917H72.8159V14.5227H74.813V16.5652H72.8159V22.7379C72.8159 23.6003 73.2925 23.8953 73.9733 23.8953C74.3591 23.8953 74.8811 23.8726 74.8811 23.8726V26.142C74.8811 26.142 74.1776 26.1874 72.9521 26.1874C71.4542 26.1874 69.7975 25.5974 69.7975 23.3961V16.5652H68.1862Z" fill="#27272A"/>
<path d="M57.6685 10.6742L54.7552 8.12368V5.12605H51.6693V8.12368L48.758 10.6742V6.19742L53.2122 2L57.6685 6.19742V10.6742Z" fill="#FF4900"/>
</g>
</g>
<defs>
<clipPath id="clip0_21301_3753">
<rect width="75.7622" height="32" fill="white"/>
</clipPath>
<clipPath id="clip1_21301_3753">
<rect width="75.7622" height="32" fill="white"/>
</clipPath>
</defs>
</svg>
